<?xml version="1.0" standalone="no"?>
<!DOCTYPE svg PUBLIC "-//W3C//DTD SVG 20010904//EN"
 "http://www.w3.org/TR/2001/REC-SVG-20010904/DTD/svg10.dtd">
<svg version="1.0" xmlns="http://www.w3.org/2000/svg"
 width="598.000000pt" height="601.000000pt" viewBox="0 0 598.000000 601.000000"
 preserveAspectRatio="xMidYMid meet">
<metadata>
Created by potrace 1.16, written by Peter Selinger 2001-2019
</metadata>
<g transform="translate(0.000000,601.000000) scale(0.100000,-0.100000)"
fill="#000000" stroke="none">
<path d="M884 5989 c-81 -13 -212 -58 -298 -100 -267 -133 -441 -346 -543
-666 l-38 -118 -3 -2060 c-3 -2284 -7 -2127 63 -2323 119 -332 380 -581 710
-677 47 -13 122 -29 167 -35 114 -14 3982 -14 4096 0 452 57 805 384 919 849
15 60 16 265 14 2136 -3 2237 0 2131 -56 2294 -109 323 -356 562 -682 665 -45
14 -111 30 -145 36 -78 12 -4129 12 -4204 -1z m2836 -1072 c414 -78 633 -215
766 -482 69 -141 86 -219 89 -425 3 -157 1 -185 -20 -270 -33 -129 -99 -258
-177 -344 -66 -73 -181 -164 -260 -206 l-46 -24 71 -29 c74 -29 77 -30 115
-42 12 -4 22 -10 22 -14 0 -4 17 -15 37 -25 63 -30 181 -134 243 -213 59 -75
114 -184 150 -293 59 -182 66 -482 17 -673 -122 -465 -550 -764 -1172 -817
-89 -8 -435 -11 -1085 -8 l-955 3 -3 1930 c-1 1062 0 1935 2 1941 3 7 322 10
1057 9 965 0 1062 -2 1149 -18z"/>
<path d="M2370 3814 l0 -445 498 3 497 4 81 27 c145 49 233 131 272 256 24 78
23 247 -1 321 -50 153 -180 240 -400 270 -44 5 -268 10 -513 10 l-434 0 0
-446z"/>
<path d="M2370 2255 l0 -525 513 0 c463 0 521 2 604 19 215 45 334 139 386
306 40 128 26 330 -32 459 -42 95 -149 179 -284 221 -115 37 -251 45 -749 45
l-438 0 0 -525z"/>
</g>
</svg>
