<?xml version="1.0" standalone="no"?>
<!DOCTYPE svg PUBLIC "-//W3C//DTD SVG 20010904//EN"
 "http://www.w3.org/TR/2001/REC-SVG-20010904/DTD/svg10.dtd">
<svg version="1.0" xmlns="http://www.w3.org/2000/svg"
 width="100.000000pt" height="100.000000pt" viewBox="0 0 100.000000 100.000000"
 preserveAspectRatio="xMidYMid meet">
<metadata>
Created by potrace 1.16, written by Peter Selinger 2001-2019
</metadata>
<g transform="translate(0.000000,100.000000) scale(0.047847,-0.042017)"
fill="#000000" stroke="none">
<path d="M10 2349 c0 -11 16 -199 35 -417 19 -218 59 -687 90 -1042 31 -354
57 -645 58 -645 1 -1 101 -29 222 -63 121 -34 314 -88 429 -120 l208 -58 427
119 c234 65 428 121 430 123 3 2 19 174 37 382 18 207 58 664 89 1015 30 351
55 659 55 683 l0 44 -1040 0 -1040 0 0 -21z m1875 -231 c-3 -40 -8 -111 -11
-158 -2 -47 -6 -91 -9 -97 -2 -7 -7 -52 -10 -100 -6 -85 -7 -103 -20 -223 -3
-30 -7 -78 -9 -106 -3 -28 -7 -78 -10 -110 -3 -32 -8 -97 -12 -144 -3 -46 -7
-87 -9 -90 -2 -3 -6 -52 -10 -110 -6 -106 -12 -170 -20 -225 -3 -16 -7 -73
-10 -125 -5 -87 -10 -142 -20 -195 -2 -11 -4 -30 -4 -42 -1 -19 -12 -26 -73
-44 -40 -11 -102 -29 -138 -40 -36 -10 -105 -28 -155 -39 -49 -11 -121 -31
-160 -44 -38 -13 -88 -27 -111 -30 l-41 -7 -1 129 -2 129 85 23 c47 13 83 25
81 27 -2 3 -39 -5 -82 -17 l-78 -22 -266 73 c-146 40 -269 76 -274 81 -10 8
-46 386 -39 401 2 4 64 7 137 7 l133 0 7 -46 c3 -26 6 -73 6 -105 l0 -58 53
-15 c100 -29 236 -66 239 -66 2 0 2 90 0 200 l-2 200 149 0 150 0 4 -32 c4
-32 4 -32 5 5 l2 37 -449 0 -448 0 -7 73 c-4 39 -18 203 -31 362 -14 160 -27
307 -30 328 l-5 37 427 2 c236 1 384 4 331 5 l-96 4 0 119 0 120 420 0 420 0
-7 -72z"/>
<path d="M1691 1698 l-1 -28 -493 0 -492 0 7 -87 c3 -49 7 -107 7 -130 l1 -43
183 1 c100 1 175 3 166 6 -14 3 -17 22 -18 124 l-1 119 320 0 c341 0 339 0
327 47 -3 12 -5 8 -6 -9z"/>
</g>
</svg>
